# xmcd
#
# Track frame offsets: 
#        150
#        14162
#        29052
#        43822
#        63922
#        79752
#        90915
#        106060
#        121137
#        135235
#        159362
#        170515
#        187085
#
# Disc length: 2678 seconds
#
# Revision: 3
# Processed by: cddbd v1.5.2PL0 Copyright (c) Steve Scherf et al.
# Submitted via: ExactAudioCopy v1.0b3
#
DISCID=a20a740d
DTITLE=Crowell, Rodney - Diamonds and Dirt
DYEAR=1988
DGENRE=Country
TTITLE0=Crazy Baby
TTITLE1=I Couldn't Leave You If I Tried
TTITLE2=She's Crazy For Leaving
TTITLE3=After All This Time
TTITLE4=I Know You're Married
TTITLE5=Above And Beyond (The Call Of Love)
TTITLE6=Crowell, Rodney with Roseanne Cash - It's Such A Small World
TTITLE7=I Didn't Know I Could Lose You
TTITLE8=Brand New Bag
TTITLE9=The Last Waltz
TTITLE10=I've Got My Pride But I Got To Feed The Kids [Bonus Track]
TTITLE11=It's Lonely Out [Bonus Track]
TTITLE12=Lies Don't Lie [Bonus Track]
EXTD=
EXTT0=
EXTT1=
EXTT2=
EXTT3=
EXTT4=
EXTT5=
EXTT6=
EXTT7=
EXTT8=
EXTT9=
EXTT10=
EXTT11=
EXTT12=
PLAYORDER=
